<svg xmlns="http://www.w3.org/2000/svg" xmlns:xlink="http://www.w3.org/1999/xlink" width="200" zoomAndPan="magnify" viewBox="0 0 150 149.999998" height="200" preserveAspectRatio="xMidYMid meet" version="1.0"><defs><g/></defs><path fill="#0057b8" d="M 72.886719 51.738281 L 2.335938 51.738281 L 2.335938 98.238281 L 81.085938 98.238281 L 72.886719 51.738281 " fill-opacity="1" fill-rule="nonzero"/><path fill="#ffd700" d="M 81.164062 98.253906 L 147.910156 98.253906 L 147.910156 51.753906 L 72.917969 51.753906 L 81.164062 98.253906 " fill-opacity="1" fill-rule="nonzero"/><g fill="#0057b8" fill-opacity="1"><g transform="translate(84.180382, 83.837714)"><g><path d="M 5.34375 0.28125 C 4.789062 0.28125 4.28125 0.1875 3.8125 0 C 3.351562 -0.195312 2.945312 -0.46875 2.59375 -0.8125 C 2.25 -1.164062 1.976562 -1.570312 1.78125 -2.03125 C 1.59375 -2.5 1.5 -3.007812 1.5 -3.5625 L 1.5 -10.125 C 1.5 -10.675781 1.59375 -11.179688 1.78125 -11.640625 C 1.976562 -12.109375 2.25 -12.515625 2.59375 -12.859375 C 2.945312 -13.210938 3.351562 -13.484375 3.8125 -13.671875 C 4.28125 -13.867188 4.789062 -13.96875 5.34375 -13.96875 L 12.1875 -13.96875 L 12.1875 -18.890625 L 16.28125 -18.890625 L 16.28125 0 L 13.28125 0 L 12.59375 -1.640625 L 12.453125 -1.640625 C 12.273438 -1.273438 12.039062 -0.957031 11.75 -0.6875 C 11.488281 -0.425781 11.160156 -0.195312 10.765625 0 C 10.378906 0.1875 9.894531 0.28125 9.3125 0.28125 Z M 9.984375 -3.28125 C 11.453125 -3.28125 12.1875 -4.007812 12.1875 -5.46875 L 12.1875 -10.40625 L 7.125 -10.40625 C 6.570312 -10.40625 6.179688 -10.289062 5.953125 -10.0625 C 5.722656 -9.832031 5.609375 -9.441406 5.609375 -8.890625 L 5.609375 -4.796875 C 5.609375 -4.242188 5.722656 -3.851562 5.953125 -3.625 C 6.179688 -3.394531 6.570312 -3.28125 7.125 -3.28125 Z M 9.984375 -3.28125 "/></g></g></g><g fill="#0057b8" fill-opacity="1"><g transform="translate(102.38044, 83.837714)"><g><path d="M 5.34375 0 C 4.789062 0 4.28125 -0.09375 3.8125 -0.28125 C 3.351562 -0.476562 2.945312 -0.75 2.59375 -1.09375 C 2.25 -1.4375 1.976562 -1.84375 1.78125 -2.3125 C 1.59375 -2.78125 1.5 -3.285156 1.5 -3.828125 L 1.5 -10.40625 C 1.5 -10.945312 1.59375 -11.453125 1.78125 -11.921875 C 1.976562 -12.390625 2.25 -12.796875 2.59375 -13.140625 C 2.945312 -13.484375 3.351562 -13.75 3.8125 -13.9375 C 4.28125 -14.132812 4.789062 -14.234375 5.34375 -14.234375 L 12.1875 -14.234375 C 12.726562 -14.234375 13.234375 -14.132812 13.703125 -13.9375 C 14.171875 -13.75 14.578125 -13.484375 14.921875 -13.140625 C 15.265625 -12.796875 15.53125 -12.390625 15.71875 -11.921875 C 15.914062 -11.453125 16.015625 -10.945312 16.015625 -10.40625 L 16.015625 -5.46875 L 5.609375 -5.46875 L 5.609375 -4.65625 C 5.609375 -4.101562 5.722656 -3.710938 5.953125 -3.484375 C 6.179688 -3.253906 6.570312 -3.140625 7.125 -3.140625 L 15.328125 -3.140625 L 15.328125 0 Z M 11.90625 -8.484375 L 11.90625 -9.578125 C 11.90625 -10.128906 11.789062 -10.519531 11.5625 -10.75 C 11.332031 -10.976562 10.945312 -11.09375 10.40625 -11.09375 L 7.125 -11.09375 C 6.570312 -11.09375 6.179688 -10.976562 5.953125 -10.75 C 5.722656 -10.519531 5.609375 -10.128906 5.609375 -9.578125 L 5.609375 -8.484375 Z M 11.90625 -8.484375 "/></g></g></g><g fill="#0057b8" fill-opacity="1"><g transform="translate(119.896288, 83.837714)"><g><path d="M 0.6875 -12.046875 L 0.6875 -13.96875 L 4.65625 -13.96875 L 8.078125 -4.515625 L 8.34375 -4.515625 L 11.765625 -13.96875 L 15.734375 -13.96875 L 15.734375 -12.046875 L 10.546875 0 L 5.890625 0 Z M 0.6875 -12.046875 "/></g></g></g><path stroke-linecap="butt" transform="matrix(0.26225, 1.477604, -1.46547, 0.260096, 70.116002, 37.7198)" fill="none" stroke-linejoin="miter" d="M -0.000550672 -0.000907527 L 50.477121 -0.00126318 " stroke="#ffffff" stroke-width="1" stroke-opacity="1" stroke-miterlimit="4"/><g fill="#ffd700" fill-opacity="1"><g transform="translate(13.08605, 83.837728)"><g><path d="M 1.78125 -13.953125 L 4.78125 -13.953125 L 5.46875 -12.3125 L 5.609375 -12.3125 C 5.785156 -12.65625 6.019531 -12.972656 6.3125 -13.265625 C 6.570312 -13.503906 6.894531 -13.722656 7.28125 -13.921875 C 7.675781 -14.128906 8.164062 -14.234375 8.75 -14.234375 L 12.171875 -14.234375 L 12.171875 -10.390625 L 8.078125 -10.390625 C 6.609375 -10.390625 5.875 -9.660156 5.875 -8.203125 L 5.875 0 L 1.78125 0 Z M 1.78125 -13.953125 "/></g></g></g><g fill="#ffd700" fill-opacity="1"><g transform="translate(25.808237, 83.837728)"><g><path d="M 1.78125 -13.953125 L 4.78125 -13.953125 L 5.46875 -12.3125 L 5.609375 -12.3125 C 5.785156 -12.65625 6.019531 -12.972656 6.3125 -13.265625 C 6.570312 -13.503906 6.894531 -13.722656 7.28125 -13.921875 C 7.675781 -14.128906 8.164062 -14.234375 8.75 -14.234375 L 10.9375 -14.234375 C 11.519531 -14.234375 12.007812 -14.128906 12.40625 -13.921875 C 12.800781 -13.722656 13.125 -13.503906 13.375 -13.265625 C 13.664062 -12.972656 13.90625 -12.65625 14.09375 -12.3125 L 14.234375 -12.3125 C 14.410156 -12.65625 14.644531 -12.972656 14.9375 -13.265625 C 15.195312 -13.503906 15.519531 -13.722656 15.90625 -13.921875 C 16.300781 -14.128906 16.789062 -14.234375 17.375 -14.234375 L 20.65625 -14.234375 C 21.207031 -14.234375 21.710938 -14.132812 22.171875 -13.9375 C 22.640625 -13.75 23.046875 -13.476562 23.390625 -13.125 C 23.734375 -12.78125 24 -12.375 24.1875 -11.90625 C 24.382812 -11.445312 24.484375 -10.941406 24.484375 -10.390625 L 24.484375 0 L 20.390625 0 L 20.390625 -9.171875 C 20.390625 -9.710938 20.273438 -10.097656 20.046875 -10.328125 C 19.816406 -10.554688 19.425781 -10.671875 18.875 -10.671875 L 16.6875 -10.671875 C 16.144531 -10.671875 15.757812 -10.554688 15.53125 -10.328125 C 15.300781 -10.097656 15.1875 -9.710938 15.1875 -9.171875 L 15.1875 0 L 11.078125 0 L 11.078125 -9.171875 C 11.078125 -9.710938 10.960938 -10.097656 10.734375 -10.328125 C 10.503906 -10.554688 10.117188 -10.671875 9.578125 -10.671875 L 8.078125 -10.671875 C 6.609375 -10.671875 5.875 -9.941406 5.875 -8.484375 L 5.875 0 L 1.78125 0 Z M 1.78125 -13.953125 "/></g></g></g><g fill="#ffd700" fill-opacity="1"><g transform="translate(52.073396, 83.837728)"><g><path d="M 1.921875 -18.875 L 6.015625 -18.875 L 6.015625 -12.578125 L 6.15625 -12.578125 C 6.332031 -12.890625 6.570312 -13.164062 6.875 -13.40625 C 7.125 -13.601562 7.441406 -13.789062 7.828125 -13.96875 C 8.222656 -14.144531 8.710938 -14.234375 9.296875 -14.234375 L 12.859375 -14.234375 C 13.410156 -14.234375 13.914062 -14.132812 14.375 -13.9375 C 14.84375 -13.75 15.25 -13.476562 15.59375 -13.125 C 15.9375 -12.78125 16.203125 -12.375 16.390625 -11.90625 C 16.585938 -11.445312 16.6875 -10.941406 16.6875 -10.390625 L 16.6875 -3.828125 C 16.6875 -3.285156 16.585938 -2.78125 16.390625 -2.3125 C 16.203125 -1.84375 15.9375 -1.4375 15.59375 -1.09375 C 15.25 -0.75 14.84375 -0.476562 14.375 -0.28125 C 13.914062 -0.09375 13.410156 0 12.859375 0 L 1.921875 0 Z M 11.078125 -3.5625 C 11.628906 -3.5625 12.015625 -3.671875 12.234375 -3.890625 C 12.460938 -4.117188 12.578125 -4.507812 12.578125 -5.0625 L 12.578125 -9.171875 C 12.578125 -9.710938 12.460938 -10.097656 12.234375 -10.328125 C 12.015625 -10.554688 11.628906 -10.671875 11.078125 -10.671875 L 8.203125 -10.671875 C 6.742188 -10.671875 6.015625 -9.941406 6.015625 -8.484375 L 6.015625 -3.5625 Z M 11.078125 -3.5625 "/></g></g></g></svg>